<svg xmlns="http://www.w3.org/2000/svg" width="43" height="43" viewBox="0 0 43 43"><defs><style>.a{mix-blend-mode:darken;}.a,.c{isolation:isolate;}.b,.f{fill:none;}.b{stroke:#262c33;}.d{fill:#262c33;}.e{stroke:none;}</style></defs><g class="a" transform="translate(-939 -291)"><g class="b" transform="translate(939 291)"><circle class="e" cx="21.5" cy="21.5" r="21.5"/><circle class="f" cx="21.5" cy="21.5" r="21"/></g><g class="c" transform="translate(949.164 301.163)"><path class="d" d="M416.188,61.379h.654v.654h-.654Zm0,0" transform="translate(-397.998 -58.696)"/><path class="d" d="M416.188,31.438h.654v.654h-.654Zm0,0" transform="translate(-397.998 -30.064)"/><path class="d" d="M416.188,1.5h.654V2.15h-.654Zm0,0" transform="translate(-397.998 -1.431)"/><path class="d" d="M376.266,91.32h.654v.654h-.654Zm0,0" transform="translate(-359.821 -87.329)"/><path class="d" d="M376.266,61.379h.654v.654h-.654Zm0,0" transform="translate(-359.821 -58.696)"/><path class="d" d="M376.266,31.438h.654v.654h-.654Zm0,0" transform="translate(-359.821 -30.064)"/><path class="d" d="M309.213,133.268h.654V127.75H302.91v.654h6.3Zm0,0" transform="translate(-289.671 -122.167)"/><path class="d" d="M19.542,19.433a2.292,2.292,0,0,1-2.29,2.29H10.272a2.292,2.292,0,0,1-2.29-2.29V8.636l3.01,1.929V8.113h1.483V0H0V8.113H7.167l.161.1v.856H5.474a1.638,1.638,0,0,0-1.636,1.636v4.362a1.638,1.638,0,0,0,1.636,1.636H7.328V17.8H5.474a2.729,2.729,0,0,1-2.726-2.726V10.709a2.7,2.7,0,0,1,.545-1.636L2.77,8.68a3.353,3.353,0,0,0-.676,2.029v4.362a3.384,3.384,0,0,0,3.38,3.38H7.328v.981a2.948,2.948,0,0,0,2.944,2.944h6.979A2.948,2.948,0,0,0,20.2,19.433V18.08h-.654ZM.654,7.459V.654H11.821v6.8H10.338v1.91L7.358,7.459Zm4.82,8.593a.983.983,0,0,1-.981-.981V10.709a.983.983,0,0,1,.981-.981H7.328v6.325Zm0,0"/><path class="d" d="M295.422,271.469v5.453h1.614v2.041l2.959-2.041H304.8v-5.453Zm8.724,4.8h-4.355l-2.1,1.449v-1.449h-1.614v-4.144h8.07Zm0,0" transform="translate(-282.51 -259.604)"/><path class="d" d="M157.191,44.914h.654v.654h-.654Zm0,0" transform="translate(-150.321 -42.951)"/><path class="d" d="M42.418,44.914H46.78v.654H42.418Zm0,0" transform="translate(-40.564 -42.951)"/><path class="d" d="M187.133,44.914h2.443v.654h-2.443Zm0,0" transform="translate(-178.954 -42.951)"/><path class="d" d="M108.289,79.844h1.745V80.5h-1.745Zm0,0" transform="translate(-103.556 -76.354)"/><path class="d" d="M163.18,79.844h3.49V80.5h-3.49Zm0,0" transform="translate(-156.048 -76.354)"/><path class="d" d="M42.418,79.844h2.225V80.5H42.418Zm0,0" transform="translate(-40.564 -76.354)"/><path class="d" d="M157.191,114.777H159.2v.654h-2.007Zm0,0" transform="translate(-150.321 -109.761)"/><path class="d" d="M127.25,114.777h.654v.654h-.654Zm0,0" transform="translate(-121.689 -109.761)"/><path class="d" d="M42.418,114.777h3.053v.654H42.418Zm0,0" transform="translate(-40.564 -109.761)"/><path class="d" d="M387.742,309.395h.654v.654h-.654Zm0,0" transform="translate(-370.796 -295.872)"/><path class="d" d="M337.84,309.395h1.527v.654H337.84Zm0,0" transform="translate(-323.075 -295.872)"/><path class="d" d="M417.684,309.395h2.181v.654h-2.181Zm0,0" transform="translate(-399.429 -295.872)"/><path class="d" d="M337.84,343.328h1.091v.654H337.84Zm0,0" transform="translate(-323.075 -328.323)"/><path class="d" d="M377.762,343.328h2.181v.654h-2.181Zm0,0" transform="translate(-361.252 -328.323)"/></g></g></svg>