<svg xmlns="http://www.w3.org/2000/svg" width="31.241" height="35.149" viewBox="0 0 31.241 35.149"><defs><style>.a{fill:#fff;}</style></defs><path class="a" d="M53.926,9.564,54.96,8.531a.776.776,0,0,0,.877-.154l.184-.184a.781.781,0,0,0,0-1.1L54.7,5.767a.779.779,0,0,0-1.1,0l-.183.184a.78.78,0,0,0,0,1.1l.041.04-.957.957a15.545,15.545,0,0,0-9.168-4.073V3.024h.138a1.3,1.3,0,0,0,1.3-1.3V1.3a1.3,1.3,0,0,0-1.3-1.3H40.354a1.3,1.3,0,0,0-1.3,1.3v.432a1.3,1.3,0,0,0,1.3,1.3h.138v.949a15.62,15.62,0,0,0,.557,31.153c.293.016.583.024.873.024a15.61,15.61,0,0,0,12-25.585Zm1.5,10.71A13.538,13.538,0,1,1,41.9,5.991c.252,0,.5.007.758.021A13.553,13.553,0,0,1,55.427,20.274Zm-1.481-.88H53.1c0-.024.008-.045.008-.069a1.754,1.754,0,0,0-1.751-1.75H44.573A3.547,3.547,0,0,0,41.518,15.8l-.06,0v-8.9A12.488,12.488,0,0,1,53.946,19.394ZM52.1,19.13a.71.71,0,0,1-.709.709H43.92a2.48,2.48,0,1,1,0-1.417h7.467A.71.71,0,0,1,52.1,19.13Z" transform="translate(-26.289)"/></svg>