<svg xmlns="http://www.w3.org/2000/svg" width="16.371" height="16.435" viewBox="0 0 16.371 16.435"><defs><style>.a{isolation:isolate;}</style></defs><g class="a"><path d="M416.188,61.379h.48v.481h-.48Zm0,0" transform="translate(-402.828 -59.409)"/><path d="M416.188,31.438h.48v.481h-.48Zm0,0" transform="translate(-402.828 -30.428)"/><path d="M416.188,1.5h.48v.481h-.48Zm0,0" transform="translate(-402.828 -1.448)"/><path d="M376.266,91.32h.48V91.8h-.48Zm0,0" transform="translate(-364.188 -88.389)"/><path d="M376.266,61.379h.48v.481h-.48Zm0,0" transform="translate(-364.188 -59.409)"/><path d="M376.266,31.438h.48v.481h-.48Zm0,0" transform="translate(-364.188 -30.428)"/><path d="M307.539,131.8h.481V127.75h-5.11v.481h4.629Zm0,0" transform="translate(-293.187 -123.649)"/><path d="M14.352,14.272a1.684,1.684,0,0,1-1.682,1.682H7.544a1.684,1.684,0,0,1-1.682-1.682V6.343L8.073,7.76v-1.8H9.162V0H0V5.959H5.264l.118.076v.629H4.021a1.2,1.2,0,0,0-1.2,1.2v3.2a1.2,1.2,0,0,0,1.2,1.2H5.382v.8H4.021a2,2,0,0,1-2-2v-3.2a1.986,1.986,0,0,1,.4-1.2l-.384-.289a2.462,2.462,0,0,0-.5,1.49v3.2a2.486,2.486,0,0,0,2.483,2.483H5.382v.721a2.165,2.165,0,0,0,2.162,2.162H12.67a2.165,2.165,0,0,0,2.162-2.162v-.993h-.481ZM.481,5.478v-5h8.2v5H7.593v1.4L5.4,5.478Zm3.54,6.311a.722.722,0,0,1-.721-.721v-3.2a.722.722,0,0,1,.721-.721H5.382v4.645Zm0,0"/><path d="M295.422,271.469v4h1.185v1.5l2.173-1.5h3.529v-4Zm6.407,3.524h-3.2l-1.543,1.064v-1.064H295.9v-3.043h5.927Zm0,0" transform="translate(-285.939 -262.755)"/><path d="M157.191,44.914h.481v.48h-.481Zm0,0" transform="translate(-152.146 -43.472)"/><path d="M42.418,44.914h3.2v.48h-3.2Zm0,0" transform="translate(-41.056 -43.472)"/><path d="M187.133,44.914h1.794v.48h-1.794Zm0,0" transform="translate(-181.126 -43.472)"/><path d="M108.289,79.844h1.281v.481h-1.281Zm0,0" transform="translate(-104.813 -77.281)"/><path d="M163.18,79.844h2.563v.481H163.18Zm0,0" transform="translate(-157.942 -77.281)"/><path d="M42.418,79.844h1.634v.481H42.418Zm0,0" transform="translate(-41.056 -77.281)"/><path d="M157.191,114.777h1.474v.48h-1.474Zm0,0" transform="translate(-152.146 -111.093)"/><path d="M127.25,114.777h.481v.48h-.481Zm0,0" transform="translate(-123.165 -111.093)"/><path d="M42.418,114.777H44.66v.48H42.418Zm0,0" transform="translate(-41.056 -111.093)"/><path d="M387.742,309.395h.481v.481h-.481Zm0,0" transform="translate(-375.296 -299.463)"/><path d="M337.84,309.395h1.121v.481H337.84Zm0,0" transform="translate(-326.996 -299.463)"/><path d="M417.684,309.395h1.6v.481h-1.6Zm0,0" transform="translate(-404.276 -299.463)"/><path d="M337.84,343.328h.8v.481h-.8Zm0,0" transform="translate(-326.996 -332.308)"/><path d="M377.762,343.328h1.6v.481h-1.6Zm0,0" transform="translate(-365.636 -332.308)"/></g></svg>