<svg xmlns="http://www.w3.org/2000/svg" width="145.382" height="145.951" viewBox="0 0 145.382 145.951"><defs><style>.a{isolation:isolate;}.b{fill:#262c33;}</style></defs><g class="a"><path class="b" d="M416.188,61.379h4.267v4.268h-4.267Zm0,0" transform="translate(-297.549 -43.882)"/><path class="b" d="M416.188,31.438h4.267v4.268h-4.267Zm0,0" transform="translate(-297.549 -22.476)"/><path class="b" d="M416.188,1.5h4.267V5.764h-4.267Zm0,0" transform="translate(-297.549 -1.07)"/><path class="b" d="M376.266,91.32h4.267v4.268h-4.267Zm0,0" transform="translate(-269.007 -65.288)"/><path class="b" d="M376.266,61.379h4.267v4.268h-4.267Zm0,0" transform="translate(-269.007 -43.882)"/><path class="b" d="M376.266,31.438h4.267v4.268h-4.267Zm0,0" transform="translate(-269.007 -22.476)"/><path class="b" d="M344.021,163.74h4.268V127.75H302.91v4.268h41.11Zm0,0" transform="translate(-216.563 -91.334)"/><path class="b" d="M127.458,126.747a14.952,14.952,0,0,1-14.936,14.936H67a14.952,14.952,0,0,1-14.936-14.936V56.328L71.7,68.912V52.918h9.673V0H0V52.918H46.746l1.051.675v5.584H35.7A10.681,10.681,0,0,0,25.036,69.845V98.3A10.681,10.681,0,0,0,35.7,108.966H47.8v7.112H35.7A17.8,17.8,0,0,1,17.924,98.3V69.845a17.634,17.634,0,0,1,3.554-10.667l-3.412-2.563a21.867,21.867,0,0,0-4.411,13.231V98.3A22.074,22.074,0,0,0,35.7,120.346H47.8v6.4a19.226,19.226,0,0,0,19.2,19.2h45.522a19.226,19.226,0,0,0,19.2-19.2v-8.82h-4.268ZM4.268,48.651V4.268H77.1V48.651H67.428V61.107L47.995,48.651ZM35.7,104.7a6.408,6.408,0,0,1-6.4-6.4V69.845a6.408,6.408,0,0,1,6.4-6.4H47.8V104.7Zm0,0"/><path class="b" d="M295.422,271.469v35.563h10.527v13.31l19.3-13.31h31.342V271.469Zm56.9,31.3h-28.4l-13.7,9.451v-9.451H299.69V275.737h52.633Zm0,0" transform="translate(-211.209 -194.084)"/><path class="b" d="M157.191,44.914h4.268v4.267h-4.268Zm0,0" transform="translate(-112.382 -32.111)"/><path class="b" d="M42.418,44.914h28.45v4.267H42.418Zm0,0" transform="translate(-30.326 -32.111)"/><path class="b" d="M187.133,44.914h15.932v4.267H187.133Zm0,0" transform="translate(-133.789 -32.111)"/><path class="b" d="M108.289,79.844h11.38v4.268h-11.38Zm0,0" transform="translate(-77.42 -57.083)"/><path class="b" d="M163.18,79.844h22.76v4.268H163.18Zm0,0" transform="translate(-116.664 -57.083)"/><path class="b" d="M42.418,79.844H56.927v4.268H42.418Zm0,0" transform="translate(-30.326 -57.083)"/><path class="b" d="M157.191,114.777h13.087v4.267H157.191Zm0,0" transform="translate(-112.382 -82.059)"/><path class="b" d="M127.25,114.777h4.268v4.267H127.25Zm0,0" transform="translate(-90.976 -82.059)"/><path class="b" d="M42.418,114.777H62.333v4.267H42.418Zm0,0" transform="translate(-30.326 -82.059)"/><path class="b" d="M387.742,309.395h4.268v4.268h-4.268Zm0,0" transform="translate(-277.212 -221.198)"/><path class="b" d="M337.84,309.395H347.8v4.268H337.84Zm0,0" transform="translate(-241.535 -221.198)"/><path class="b" d="M417.684,309.395h14.225v4.268H417.684Zm0,0" transform="translate(-298.619 -221.198)"/><path class="b" d="M337.84,343.328h7.113V347.6H337.84Zm0,0" transform="translate(-241.535 -245.459)"/><path class="b" d="M377.762,343.328h14.225V347.6H377.762Zm0,0" transform="translate(-270.077 -245.459)"/></g></svg>