<svg xmlns="http://www.w3.org/2000/svg" width="15.431" height="15.46" viewBox="0 0 15.431 15.46"><path d="M48,14h.494v.494H48Z" transform="translate(-36.277 -10.757)"/><path d="M16.006,1.858a.946.946,0,0,0-1.615-.669L12.545,3.034l-.01-.01a2.131,2.131,0,0,0-1.074-.582L8.343.882,2.635,3.736l.192,1.35a17.515,17.515,0,0,1-.106,5.425l-.075.452.394.631L1.5,13.093l-.048.047-.873,3.2,3.2-.873,1.269-1.306A12.134,12.134,0,0,0,7.8,15.993l.546.273.546-.273a10.128,10.128,0,0,0,4.348-3.741l.8-1.289-.075-.452a18.451,18.451,0,0,1-.26-3.641l.391.391.2-.4a2.16,2.16,0,0,0,.227-.96,2.134,2.134,0,0,0-.629-1.519l-.01-.01,1.845-1.845a.94.94,0,0,0,.277-.669ZM13.142,3.136,14.275,2l.639.639L13.781,3.775V3.136ZM4.207,4.82l-.044-.307L8.1,2.547v4.13l-3.9,3.8A19.654,19.654,0,0,0,4.207,4.82Zm5.967-1.481.9.9-.63.157L8.59,6.2V2.547Zm.842-.45a1.641,1.641,0,0,1,.867.247h-.574v.639l-.8-.8a1.659,1.659,0,0,1,.512-.082ZM12.1,6.125l-1.494.187.187-1.494.517-.129v.919h.919Zm-1.864-.838-.149,1.195L3.544,13.023H2.278ZM3.893,13.373l6.542-6.542,1.194-.149L3.893,14.639Zm4.2-2.347v3.568A10.258,10.258,0,0,1,6.01,13.171Zm.494-.508L12.3,6.7a19.688,19.688,0,0,0,.231,4.048l-.481.781A8.491,8.491,0,0,1,8.59,14.594Zm3.213-5.4V3.63h1.483V5.113ZM3.164,10.86l.044-.268a18.011,18.011,0,0,0,.108-5.576l-.142-1L8.343,1.435l2.089,1.044a2.141,2.141,0,0,0-.376.142l-.106.053-1.607-.8L3.624,4.23l.094.66a19.157,19.157,0,0,1-.068,5.867l-.015.091.064.1-.3.288ZM1.857,13.518H3.4v1.541l-2.12.578Zm11.62-2.926.044.268-.705,1.132a9.662,9.662,0,0,1-4.149,3.559l-.324.162-.325-.162A11.68,11.68,0,0,1,5.39,13.808l.275-.283a11.2,11.2,0,0,0,2.567,1.7l.111.055.11-.055a9.234,9.234,0,0,0,4.02-3.434l.578-.939-.015-.091a19.188,19.188,0,0,1-.193-4.749l.389.389A18.684,18.684,0,0,0,13.477,10.592ZM14.028,5.9a1.654,1.654,0,0,1-.082.512l-.8-.8h.639V5.033A1.642,1.642,0,0,1,14.028,5.9Zm1.351-3.723-.115.115-.639-.639.115-.115a.452.452,0,0,1,.771.32A.45.45,0,0,1,15.379,2.177Z" transform="translate(-0.575 -0.882)"/></svg>