<svg xmlns="http://www.w3.org/2000/svg" width="20.324" height="20.324" viewBox="0 0 20.324 20.324"><path d="M237.458,313.232h.856a.321.321,0,0,0,0-.642h-.856a.321.321,0,1,0,0,.642Z" transform="translate(-227.724 -300.182)"/><path d="M291.353,313.232h.856a.321.321,0,0,0,0-.642h-.856a.321.321,0,0,0,0,.642Z" transform="translate(-279.479 -300.182)"/><path d="M221.876,132.411a.321.321,0,0,0,.267.143h.02a.321.321,0,0,0,.267-.177l1.284-2.567a.321.321,0,0,0-.574-.287L222.1,131.6l-.549-.823a.321.321,0,0,0-.534.356Z" transform="translate(-212.195 -124.211)"/><path d="M183.563,313.232h.856a.321.321,0,0,0,0-.642h-.856a.321.321,0,1,0,0,.642Z" transform="translate(-175.968 -300.182)"/><path d="M19.575,1.284H14.334V.749A.75.75,0,0,0,13.585,0H6.739A.75.75,0,0,0,5.99.749v.535H.749A.75.75,0,0,0,0,2.032V13.585a.75.75,0,0,0,.749.749H7.7v.535a.75.75,0,0,0,.749.749h.535v2.353H7.595a.75.75,0,0,0-.749.749v.963H5.883a.321.321,0,0,0,0,.642H10.59a.321.321,0,0,0,0-.642h-3.1V18.72a.107.107,0,0,1,.107-.107h5.135a.107.107,0,0,1,.107.107v.963h-.963a.321.321,0,1,0,0,.642h2.567a.321.321,0,0,0,0-.642h-.963V18.72a.75.75,0,0,0-.749-.749H11.339V15.618h.535a.75.75,0,0,0,.749-.749v-.535h6.953a.75.75,0,0,0,.749-.749V2.032A.75.75,0,0,0,19.575,1.284ZM10.7,17.971H9.627V15.618H10.7Zm8.985-4.386a.107.107,0,0,1-.107.107h-8.13a.321.321,0,1,0,0,.642h.535v.535a.107.107,0,0,1-.107.107H8.451a.107.107,0,0,1-.107-.107v-.535h1.819a.321.321,0,1,0,0-.642H.749a.107.107,0,0,1-.107-.107V11.767H19.682v1.818Zm0-2.46H.642V7.06H3.118l.576,1.151a.535.535,0,0,0,.957,0L5.226,7.06H6.861a3.316,3.316,0,0,0,6.6,0H15.3a.321.321,0,0,0,.287-.177l.569-1.137.569,1.137a.321.321,0,0,0,.287.177h2.674v4.065ZM7.488,6.739a2.674,2.674,0,1,1,2.674,2.674A2.677,2.677,0,0,1,7.488,6.739Zm12.195-.321H17.207l-.576-1.151a.535.535,0,0,0-.957,0L15.1,6.418H13.463a3.316,3.316,0,0,0-6.6,0H5.028a.321.321,0,0,0-.287.177L4.172,7.733,3.6,6.6a.321.321,0,0,0-.287-.177H.642V2.032a.107.107,0,0,1,.107-.107h10.7a.321.321,0,0,0,0-.642H6.632V.749A.107.107,0,0,1,6.739.642h6.846a.107.107,0,0,1,.107.107v.535h-.963a.321.321,0,0,0,0,.642h6.846a.107.107,0,0,1,.107.107Z"/></svg>