<svg xmlns="http://www.w3.org/2000/svg" width="58.754" height="58.755" viewBox="0 0 58.754 58.755"><defs><style>.a{opacity:0.15;mix-blend-mode:hard-light;isolation:isolate;}.b{fill:none;}.c,.d{stroke:none;}</style></defs><g class="a" transform="translate(-60 -729)"><g class="b" transform="translate(60 729)"><path class="c" d="M29.377,0A29.377,29.377,0,1,1,0,29.377,29.377,29.377,0,0,1,29.377,0Z"/><path class="d" d="M 29.37687301635742 0.9999923706054688 C 25.54558181762695 0.9999923706054688 21.82942199707031 1.750144958496094 18.33162307739258 3.2296142578125 C 14.95264434814453 4.658824920654297 11.91780471801758 6.705074310302734 9.3114013671875 9.3115234375 C 6.704994201660156 11.91797256469727 4.658771514892578 14.95286560058594 3.229591369628906 18.33190536499023 C 1.750141143798828 21.82976531982422 1.000003814697266 25.54598236083984 1.000003814697266 29.37734413146973 C 1.000003814697266 33.20870208740234 1.750141143798828 36.9249267578125 3.229591369628906 40.42278289794922 C 4.658771514892578 43.80182647705078 6.704994201660156 46.83671569824219 9.3114013671875 49.44316482543945 C 11.91780471801758 52.04960250854492 14.95264434814453 54.09585571289062 18.33162307739258 55.52506256103516 C 21.82942199707031 57.00453567504883 25.54558181762695 57.75468444824219 29.37687301635742 57.75468444824219 C 33.20816040039062 57.75468444824219 36.92432403564453 57.00453567504883 40.42212295532227 55.52506256103516 C 43.80110168457031 54.09585571289062 46.83594512939453 52.04960250854492 49.44234466552734 49.44316482543945 C 52.04875183105469 46.83671569824219 54.09497451782227 43.80182647705078 55.52415466308594 40.42278289794922 C 57.00360107421875 36.9249267578125 57.75374221801758 33.20870208740234 57.75374221801758 29.37734413146973 C 57.75374221801758 25.54598236083984 57.00360107421875 21.82976531982422 55.52415466308594 18.33190536499023 C 54.09497451782227 14.95286560058594 52.04875183105469 11.91797256469727 49.44234466552734 9.3115234375 C 46.83594512939453 6.705074310302734 43.80110168457031 4.658824920654297 40.42212295532227 3.2296142578125 C 36.92432403564453 1.750144958496094 33.20816040039062 0.9999923706054688 29.37687301635742 0.9999923706054688 M 29.37687301635742 -7.62939453125e-06 C 45.60127258300781 -7.62939453125e-06 58.75374221801758 13.15268325805664 58.75374221801758 29.37734413146973 C 58.75374221801758 45.60200500488281 45.60127258300781 58.75468444824219 29.37687301635742 58.75468444824219 C 13.15247344970703 58.75468444824219 3.814697265625e-06 45.60200500488281 3.814697265625e-06 29.37734413146973 C 3.814697265625e-06 13.15268325805664 13.15247344970703 -7.62939453125e-06 29.37687301635742 -7.62939453125e-06 Z"/></g><path d="M4.026,45.245h34.08a1.279,1.279,0,0,0,1.278-1.278V22.058a1.279,1.279,0,0,0-1.278-1.278H4.026a1.279,1.279,0,0,0-1.278,1.278V43.967A1.28,1.28,0,0,0,4.026,45.245ZM3.843,22.058a.183.183,0,0,1,.183-.183h34.08a.183.183,0,0,1,.183.183V43.967a.183.183,0,0,1-.183.183H4.026a.183.183,0,0,1-.183-.183ZM42.131,46.223v1.023a.491.491,0,0,1-.491.491H.491A.491.491,0,0,1,0,47.245V46.223H17.3a.69.69,0,0,0,.66.494h6.206a.69.69,0,0,0,.66-.494Z" transform="translate(68.515 723.728)"/></g></svg>