<svg xmlns="http://www.w3.org/2000/svg" width="21.932" height="20.424" viewBox="0 0 21.932 20.424"><defs><style>.a{fill:#fff;}</style></defs><rect class="a" width="0.274" height="1.371" transform="translate(6.991 1.233)"/><rect class="a" width="0.274" height="1.371" transform="translate(10.829 1.233)"/><path class="a" d="M19.876,6.495h-1.3V7.866h1.3a.647.647,0,0,1,.685.685V23.628a.647.647,0,0,1-.685.685H2.056a.648.648,0,0,1-.685-.685V8.551a.647.647,0,0,1,.685-.685h1.37V6.5H2.056A2.019,2.019,0,0,0,0,8.551V23.629a2.019,2.019,0,0,0,2.056,2.056H19.876a2.019,2.019,0,0,0,2.056-2.056V8.551A2.108,2.108,0,0,0,19.876,6.495Z" transform="translate(0 -5.262)"/><rect class="a" width="0.206" height="1.371" transform="translate(14.667 1.233)"/><path class="a" d="M52.169,6.371a1.082,1.082,0,0,0,1.1-1.1V3.561a1.1,1.1,0,1,0-2.193,0V5.274A1.127,1.127,0,0,0,52.169,6.371Z" transform="translate(-35.446 -2.464)"/><path class="a" d="M39.624,6.371a1.082,1.082,0,0,0,1.1-1.1V3.561a1.1,1.1,0,1,0-2.193,0V5.274A1.127,1.127,0,0,0,39.624,6.371Z" transform="translate(-26.739 -2.464)"/><path class="a" d="M27.081,6.371a1.082,1.082,0,0,0,1.1-1.1V3.561a1.1,1.1,0,0,0-2.193,0V5.274A1.127,1.127,0,0,0,27.081,6.371Z" transform="translate(-18.034 -2.464)"/><path class="a" d="M14.537,6.371a1.082,1.082,0,0,0,1.1-1.1V3.561a1.1,1.1,0,0,0-2.193,0V5.274A1.127,1.127,0,0,0,14.537,6.371Z" transform="translate(-9.328 -2.464)"/><path class="a" d="M21.954,31.14a5.826,5.826,0,1,0-5.826-5.826A5.822,5.822,0,0,0,21.954,31.14Zm-4.181-8.088.411.206.137-.206-.412-.206a4.939,4.939,0,0,1,1.576-1.576l.206.411.206-.137-.206-.411a5.473,5.473,0,0,1,2.125-.617V21h.274v-.479a3.845,3.845,0,0,1,2.124.617l-.206.411.206.137.206-.411A5.733,5.733,0,0,1,26,22.847l-.411.206.137.206.412-.206a5.477,5.477,0,0,1,.617,2.124h-.48v.274h.48a3.847,3.847,0,0,1-.617,2.124l-.412-.206-.136.207.411.206a5.74,5.74,0,0,1-1.576,1.576l-.206-.411-.206.137.206.411a5.477,5.477,0,0,1-2.124.617v-.48h-.275v.479a3.846,3.846,0,0,1-2.125-.617l.206-.411-.206-.137-.206.412a5.762,5.762,0,0,1-1.576-1.576l.412-.206-.137-.206-.411.206a5.475,5.475,0,0,1-.617-2.125h.48v-.274h-.48A5.468,5.468,0,0,1,17.773,23.053Z" transform="translate(-11.193 -14.28)"/><path class="a" d="M35.168,26.656v3.632H38.8A3.656,3.656,0,0,0,35.168,26.656Z" transform="translate(-24.408 -19.254)"/></svg>