<svg xmlns="http://www.w3.org/2000/svg" width="43" height="43" viewBox="0 0 43 43"><defs><style>.a,.d{fill:none;}.a{stroke:#262c33;}.b{fill:#262c33;}.c{stroke:none;}</style></defs><g transform="translate(-77 -295)"><g class="a" transform="translate(77 295)"><circle class="c" cx="21.5" cy="21.5" r="21.5"/><circle class="d" cx="21.5" cy="21.5" r="21"/></g><g transform="translate(83.233 306.958)"><path class="b" d="M2.946,38.685H27.888a.936.936,0,0,0,.935-.935V21.715a.936.936,0,0,0-.935-.935H2.946a.936.936,0,0,0-.935.935V37.749A.937.937,0,0,0,2.946,38.685ZM2.813,21.715a.134.134,0,0,1,.134-.134H27.888a.134.134,0,0,1,.134.134V37.749a.134.134,0,0,1-.134.134H2.946a.134.134,0,0,1-.134-.134ZM30.834,39.4v.749a.359.359,0,0,1-.359.359H.359A.359.359,0,0,1,0,40.149V39.4H12.663a.5.5,0,0,0,.483.362h4.542a.5.5,0,0,0,.483-.362Z" transform="translate(0 -20.78)"/></g></g></svg>