<svg xmlns="http://www.w3.org/2000/svg" width="21.01" height="21.05" viewBox="0 0 21.01 21.05"><defs><style>.a{fill:#fff;}</style></defs><g transform="translate(-0.575 -0.882)"><path class="a" d="M48,14h.673v.673H48Z" transform="translate(-31.464 -8.703)"/><path class="a" d="M21.585,2.21a1.288,1.288,0,0,0-2.2-.911L16.873,3.811,16.859,3.8A2.9,2.9,0,0,0,15.4,3.005L11.151.882,3.38,4.768l.261,1.838A23.848,23.848,0,0,1,3.5,13.992l-.1.615.536.859-2.1,2.042-.066.064L.575,21.932l4.359-1.189,1.728-1.778a16.521,16.521,0,0,0,3.746,2.491l.743.372.743-.372a13.79,13.79,0,0,0,5.92-5.094l1.094-1.755-.1-.615a25.122,25.122,0,0,1-.354-4.957l.532.532.273-.544a2.941,2.941,0,0,0,.309-1.308,2.905,2.905,0,0,0-.857-2.068L18.7,5.634l2.512-2.512a1.28,1.28,0,0,0,.377-.911Zm-3.9,1.74,1.543-1.543.87.87L18.556,4.821v-.87ZM5.521,6.244l-.06-.418,5.354-2.677V8.773L5.5,13.941a26.76,26.76,0,0,0,.022-7.7Zm8.124-2.017,1.224,1.224-.858.214L11.488,8.118V3.149Zm1.147-.613a2.235,2.235,0,0,1,1.181.337H15.19v.87l-1.1-1.1a2.259,2.259,0,0,1,.7-.111Zm1.474,4.407-2.034.254.254-2.034.7-.176V7.316h1.252ZM13.728,6.88l-.2,1.627L4.617,17.413H2.893ZM5.093,17.889,14,8.982l1.626-.2L5.093,19.613Zm5.722-3.2v4.858a13.968,13.968,0,0,1-2.84-1.937ZM11.488,14l5.054-5.2a26.807,26.807,0,0,0,.315,5.512L16.2,15.378a11.561,11.561,0,0,1-4.715,4.174Zm4.375-7.358V4.624h2.019V6.643ZM4.1,14.467l.061-.364a24.524,24.524,0,0,0,.147-7.592L4.115,5.153l7.037-3.518L14,3.057a2.915,2.915,0,0,0-.512.193l-.144.072L11.151,2.228,4.726,5.441l.128.9a26.083,26.083,0,0,1-.093,7.989l-.021.125.087.141-.4.392ZM2.321,18.086h2.1v2.1l-2.886.787ZM18.142,14.1l.061.364-.961,1.541a13.156,13.156,0,0,1-5.649,4.846l-.442.221-.442-.221a15.9,15.9,0,0,1-3.578-2.372l.374-.385A15.244,15.244,0,0,0,11,20.407l.151.075.15-.075a12.572,12.572,0,0,0,5.474-4.676l.787-1.278-.021-.125a26.126,26.126,0,0,1-.262-6.467l.529.529A25.44,25.44,0,0,0,18.142,14.1Zm.75-6.388a2.252,2.252,0,0,1-.111.7l-1.1-1.1h.87V6.534A2.236,2.236,0,0,1,18.892,7.715Zm1.839-5.07-.157.156-.87-.87.157-.157a.615.615,0,0,1,1.05.436A.612.612,0,0,1,20.732,2.646Z"/></g></svg>